{"asset":{"version":"2.0","generator":"babylon.js glTF exporter for Autodesk Maya 2018.5 v20220210.4"},"scene":0,"scenes":[{"nodes":[0]}],"nodes":[{"mesh":0,"name":"line"}],"meshes":[{"primitives":[{"attributes":{"POSITION":1,"TANGENT":2,"NORMAL":3,"TEXCOORD_0":4},"indices":0}],"name":"line"}],"accessors":[{"bufferView":0,"componentType":5123,"count":62208,"type":"SCALAR","name":"accessorIndices"},{"bufferView":1,"componentType":5126,"count":24156,"max":[0.7131688,0.710844934,0.7131688],"min":[-0.7131688,-0.710844934,-0.7131688],"type":"VEC3","name":"accessorPositions"},{"bufferView":2,"componentType":5126,"count":24156,"type":"VEC4","name":"accessorTangents"},{"bufferView":1,"byteOffset":289872,"componentType":5126,"count":24156,"type":"VEC3","name":"accessorNormals"},{"bufferView":3,"componentType":5126,"count":24156,"type":"VEC2","name":"accessorUVs"}],"bufferViews":[{"buffer":0,"byteLength":124416,"name":"bufferViewScalar"},{"buffer":0,"byteOffset":124416,"byteLength":579744,"byteStride":12,"name":"bufferViewFloatVec3"},{"buffer":0,"byteOffset":704160,"byteLength":386496,"byteStride":16,"name":"bufferViewFloatVec4"},{"buffer":0,"byteOffset":1090656,"byteLength":193248,"byteStride":8,"name":"bufferViewFloatVec2"}],"buffers":[{"uri":"jiduCube_line.bin","byteLength":1283904}]}