{"asset":{"version":"2.0","generator":"babylon.js glTF exporter for Autodesk Maya 2018.5 v20220210.4"},"scene":0,"scenes":[{"nodes":[0]}],"nodes":[{"mesh":0,"name":"group4"}],"meshes":[{"primitives":[{"attributes":{"POSITION":1,"TANGENT":2,"NORMAL":3,"TEXCOORD_0":4},"indices":0,"material":0}],"name":"group4"}],"accessors":[{"bufferView":0,"componentType":5123,"count":75432,"type":"SCALAR","name":"accessorIndices"},{"bufferView":1,"componentType":5126,"count":29916,"max":[0.7307522,0.7307522,0.7307522],"min":[-0.7307522,-0.7307522,-0.7307522],"type":"VEC3","name":"accessorPositions"},{"bufferView":2,"componentType":5126,"count":29916,"type":"VEC4","name":"accessorTangents"},{"bufferView":1,"byteOffset":358992,"componentType":5126,"count":29916,"type":"VEC3","name":"accessorNormals"},{"bufferView":3,"componentType":5126,"count":29916,"type":"VEC2","name":"accessorUVs"}],"bufferViews":[{"buffer":0,"byteLength":150864,"name":"bufferViewScalar"},{"buffer":0,"byteOffset":150864,"byteLength":717984,"byteStride":12,"name":"bufferViewFloatVec3"},{"buffer":0,"byteOffset":868848,"byteLength":478656,"byteStride":16,"name":"bufferViewFloatVec4"},{"buffer":0,"byteOffset":1347504,"byteLength":239328,"byteStride":8,"name":"bufferViewFloatVec2"}],"buffers":[{"uri":"jiduCube.bin","byteLength":1586832}],"materials":[{"pbrMetallicRoughness":{"baseColorFactor":[0.5,0.5,0.5,1.0],"metallicFactor":0.0,"roughnessFactor":0.450053632},"name":"lambert1"}]}