{"asset":{"version":"2.0","generator":"babylon.js glTF exporter for Autodesk Maya 2018.5 v20220210.4"},"scene":0,"scenes":[{"nodes":[0]}],"nodes":[{"mesh":0,"name":"Cube_1"}],"meshes":[{"primitives":[{"attributes":{"POSITION":1,"TANGENT":2,"NORMAL":3,"TEXCOORD_0":4},"indices":0,"material":0}],"name":"Cube_1"}],"accessors":[{"bufferView":0,"componentType":5123,"count":7188,"type":"SCALAR","name":"accessorIndices"},{"bufferView":1,"componentType":5126,"count":4800,"max":[0.704374969,0.704374969,0.704374969],"min":[-0.704374969,-0.704374969,-0.704374969],"type":"VEC3","name":"accessorPositions"},{"bufferView":2,"componentType":5126,"count":4800,"type":"VEC4","name":"accessorTangents"},{"bufferView":1,"byteOffset":57600,"componentType":5126,"count":4800,"type":"VEC3","name":"accessorNormals"},{"bufferView":3,"componentType":5126,"count":4800,"type":"VEC2","name":"accessorUVs"}],"bufferViews":[{"buffer":0,"byteLength":14376,"name":"bufferViewScalar"},{"buffer":0,"byteOffset":14376,"byteLength":115200,"byteStride":12,"name":"bufferViewFloatVec3"},{"buffer":0,"byteOffset":129576,"byteLength":76800,"byteStride":16,"name":"bufferViewFloatVec4"},{"buffer":0,"byteOffset":206376,"byteLength":38400,"byteStride":8,"name":"bufferViewFloatVec2"}],"buffers":[{"uri":"jiduCube_in.bin","byteLength":244776}],"materials":[{"pbrMetallicRoughness":{"baseColorFactor":[0.5,0.5,0.5,1.0],"metallicFactor":0.0,"roughnessFactor":0.450053632},"name":"lambert1"}]}