{"asset":{"version":"2.0","generator":"babylon.js glTF exporter for Autodesk Maya 2018.5 v20220210.4"},"scene":0,"scenes":[{"nodes":[0]}],"nodes":[{"mesh":0,"name":"Cube_out"}],"meshes":[{"primitives":[{"attributes":{"POSITION":1,"TANGENT":2,"NORMAL":3,"TEXCOORD_0":4,"TEXCOORD_1":5},"indices":0}],"name":"Cube_out"}],"accessors":[{"bufferView":0,"componentType":5123,"count":5316,"type":"SCALAR","name":"accessorIndices"},{"bufferView":1,"componentType":5126,"count":1062,"max":[0.71875,0.71875,0.71875],"min":[-0.71875,-0.71875,-0.71875],"type":"VEC3","name":"accessorPositions"},{"bufferView":2,"componentType":5126,"count":1062,"type":"VEC4","name":"accessorTangents"},{"bufferView":1,"byteOffset":12744,"componentType":5126,"count":1062,"type":"VEC3","name":"accessorNormals"},{"bufferView":3,"componentType":5126,"count":1062,"type":"VEC2","name":"accessorUVs"},{"bufferView":3,"byteOffset":8496,"componentType":5126,"count":1062,"type":"VEC2","name":"accessorUV2s"}],"bufferViews":[{"buffer":0,"byteLength":10632,"name":"bufferViewScalar"},{"buffer":0,"byteOffset":10632,"byteLength":25488,"byteStride":12,"name":"bufferViewFloatVec3"},{"buffer":0,"byteOffset":36120,"byteLength":16992,"byteStride":16,"name":"bufferViewFloatVec4"},{"buffer":0,"byteOffset":53112,"byteLength":16992,"byteStride":8,"name":"bufferViewFloatVec2"}],"buffers":[{"uri":"jiduCube_shell.bin","byteLength":70104}]}